<?xml version="1.0" encoding="utf-8"?>
<!-- Generator: Adobe Illustrator 25.0.1, SVG Export Plug-In . SVG Version: 6.00 Build 0)  -->
<svg version="1.1" id="Layer_1" xmlns="http://www.w3.org/2000/svg" xmlns:xlink="http://www.w3.org/1999/xlink" x="0px" y="0px"
	 viewBox="0 0 100 100" style="enable-background:new 0 0 100 100;" xml:space="preserve">
<style type="text/css">
	.st0{fill:#FFFFFF;}
</style>
<path class="st0" d="M3.5,50.6c0,0.8,0,1.4,0.3,1.7c0.2,0.2,0.5,0.4,1.8,0.4c1.8,0,2.1-0.1,2.9-1.8c0.2-0.1,0.4,0,0.5,0.1
	c-0.1,0.7-0.5,2-0.7,2.4c-0.7,0-2.2,0-4,0H2.5c-0.8,0-1.7,0-2.4,0c-0.1-0.1-0.2-0.4,0-0.5l0.5-0.1c0.8-0.1,0.9-0.2,0.9-1.9v-6.2
	c0-1.7-0.2-1.8-0.9-1.9l-0.5-0.1c-0.1-0.1-0.1-0.4,0-0.5c0.8,0,1.6,0,2.4,0c0.7,0,1.5,0,2.2,0c0.2,0.1,0.2,0.4,0,0.5l-0.4,0.1
	C3.6,43,3.5,43,3.5,44.8C3.5,44.8,3.5,50.6,3.5,50.6z M10.1,43.4c0,1.3-1.1,2.2-2.3,2.5c-0.1-0.1-0.2-0.3-0.1-0.4
	C8.4,45.1,9,44.6,9,43.9c0-0.6-0.5-0.8-0.9-0.9c-0.2,0-0.5-0.2-0.5-0.6c0-0.3,0.2-0.8,1-0.8C9.3,41.7,10.1,42.5,10.1,43.4
	 M11.9,46.6c0-4.2,3.1-7.4,7.5-7.4c4.9,0,7.3,3.5,7.3,7.2c0,4.3-3.2,7.3-7.3,7.3C14.7,53.7,11.9,50.4,11.9,46.6 M24.5,47.1
	c0-3.4-1.5-7.2-5.5-7.2c-2.2,0-5,1.5-5,6.1c0,3.1,1.5,7.1,5.7,7.1C22.1,53.1,24.5,51.2,24.5,47.1 M38.6,45.2c-0.1,0.1-0.4,0.2-0.5,0
	c-0.3-1-1-2.4-3.2-2.4c-2.1,0-4.3,1.5-4.3,4.9c0,3.6,2.2,5.3,4.4,5.3c2.1,0,3-1.4,3.5-2.5c0.2-0.2,0.4-0.1,0.5,0.1
	c-0.1,1.1-0.6,2.2-0.8,2.6c-0.2,0-0.4,0.1-0.6,0.2c-0.4,0.1-1.5,0.4-2.6,0.4c-1.6,0-3.1-0.3-4.3-1.1c-1.4-0.9-2.4-2.4-2.4-4.6
	c0-2,0.9-3.5,2.1-4.5c1.2-0.9,2.9-1.4,4.6-1.4c1,0,2.1,0.2,2.9,0.4c0.2,0,0.3,0.1,0.5,0.1C38.4,42.9,38.5,43.9,38.6,45.2 M50.2,45.2
	c-0.1,0.1-0.4,0.2-0.5,0c-0.3-1-1-2.4-3.2-2.4c-2.1,0-4.3,1.5-4.3,4.9c0,3.6,2.2,5.3,4.4,5.3c2.1,0,3-1.4,3.5-2.5
	c0.2-0.2,0.4-0.1,0.5,0.1c-0.1,1.1-0.6,2.2-0.8,2.6c-0.2,0-0.4,0.1-0.6,0.2c-0.4,0.1-1.5,0.4-2.6,0.4c-1.6,0-3.1-0.3-4.3-1.1
	c-1.4-0.9-2.4-2.4-2.4-4.6c0-2,0.9-3.5,2.1-4.5c1.2-0.9,2.9-1.4,4.6-1.4c1,0,2.1,0.2,2.9,0.4c0.2,0,0.3,0.1,0.5,0.1
	C50,42.9,50.1,43.9,50.2,45.2 M54.8,51c0,1.8,0.2,1.8,0.9,1.9l0.4,0c0.1,0.1,0.1,0.4,0,0.5c-0.7,0-1.5,0-2.2,0c-0.8,0-1.5,0-2.2,0
	c-0.1-0.1-0.2-0.4,0-0.5l0.4,0c0.8-0.1,0.9-0.2,0.9-1.9v-6.2c0-1.8-0.2-1.8-0.9-1.9l-0.4,0c-0.1-0.1-0.1-0.4,0-0.5
	c0.7,0,1.5,0,2.2,0c0.7,0,1.5,0,2.2,0c0.1,0.1,0.2,0.4,0,0.5l-0.4,0c-0.8,0.1-0.9,0.2-0.9,1.9C54.8,44.8,54.8,51,54.8,51z
	 M61.5,43.7c0-0.7,0-0.7-0.4-0.7h-1c-1.5,0-2,0.2-2.6,1.5c-0.1,0.1-0.5,0-0.5-0.1c0.3-0.9,0.5-1.9,0.6-2.5c0,0,0.1-0.1,0.2-0.1
	c0.1,0,0.1,0,0.2,0.1c0.1,0.4,0.3,0.4,1.4,0.4h6.9c0.8,0,1.1,0,1.3-0.4c0.1,0,0.1-0.1,0.2-0.1c0.1,0,0.2,0,0.2,0.1
	c-0.2,0.7-0.3,2.1-0.2,2.6c-0.1,0.1-0.4,0.2-0.5,0c-0.2-1.3-0.5-1.6-2.3-1.6h-1c-0.4,0-0.4,0-0.4,0.7v7.3c0,1.8,0.2,1.8,0.9,1.9
	l0.6,0.1c0.1,0.1,0.1,0.4,0,0.5c-1,0-1.7,0-2.4,0s-1.5,0-2.6,0c-0.1-0.1-0.2-0.4,0-0.5l0.7-0.1c0.8-0.1,0.9-0.1,0.9-1.9
	C61.5,50.9,61.5,43.7,61.5,43.7z M70.2,49.3c-0.4,0-0.4,0-0.6,0.4l-0.7,2c-0.3,1-0.3,1,0.4,1.1l0.5,0.1c0.1,0.1,0.1,0.4,0,0.5
	c-0.5,0-1.1,0-1.8,0c-0.6,0-1.1,0-1.6,0c-0.1-0.1-0.1-0.3,0-0.5l0.5-0.1c0.5-0.1,0.7-0.2,0.9-0.8c0.2-0.4,0.5-1.1,0.8-2l2.3-6
	c0.2-0.5,0.4-0.9,0.3-1.2c0.6-0.1,1.1-0.8,1.2-0.8c0.1,0,0.2,0,0.3,0.1c0.3,0.8,0.5,1.5,0.8,2.3l2.4,7c0.4,1.1,0.5,1.2,1.3,1.4
	l0.2,0c0.1,0.1,0.1,0.4,0,0.5c-0.7,0-1.3,0-2.2,0c-0.7,0-1.4,0-2,0c-0.1-0.1-0.2-0.4,0-0.5l0.4,0c0.6-0.1,0.6-0.2,0.4-0.9l-0.8-2.3
	c-0.2-0.4-0.2-0.4-0.7-0.4L70.2,49.3L70.2,49.3z M72.2,48.5c0.5,0,0.5,0,0.4-0.4l-0.7-2c-0.3-0.9-0.4-1.2-0.5-1.3
	c-0.1,0.1-0.2,0.5-0.5,1.3l-0.7,2c-0.2,0.5-0.1,0.5,0.3,0.5H72.2z M88.4,50.5c0,0.5,0,2.6,0,3c-0.1,0.2-0.4,0.2-0.6,0.2
	c-0.3-0.4-0.8-0.9-2-2.3L82,47c-1.1-1.2-1.6-1.8-1.9-2.1c0,0,0,0.2,0,1.1v3.3c0,1.2,0,2.8,0.3,3.3c0.2,0.2,0.4,0.4,0.8,0.4l0.4,0
	c0.2,0.1,0.1,0.4,0,0.5c-0.6,0-1.3,0-1.9,0c-0.7,0-1.2,0-1.7,0c-0.1-0.1-0.2-0.4,0-0.5l0.4-0.1c0.3,0,0.6-0.1,0.7-0.4
	c0.2-0.5,0.2-2,0.2-3.3v-4c0-1.3,0-1.6-0.6-2c-0.2-0.2-0.6-0.3-0.9-0.3l-0.2,0c-0.1-0.1-0.1-0.4,0.1-0.5c0.6,0.1,1.6,0,2,0
	c0.4,0,0.8,0,1.2,0c0.3,0.7,2.1,2.8,2.7,3.5l1.7,1.8c0.7,0.8,2.2,2.6,2.4,2.6c0,0,0-0.1,0-0.4v-3.3c0-1.2,0-2.8-0.3-3.3
	c-0.2-0.2-0.4-0.4-0.8-0.4l-0.4,0c-0.2-0.1-0.1-0.4,0-0.5c0.6,0,1.3,0,1.9,0c0.7,0,1.2,0,1.8,0c0.1,0.1,0.2,0.4,0,0.5l-0.4,0.1
	c-0.3,0-0.6,0.1-0.7,0.4c-0.2,0.5-0.2,2-0.2,3.3L88.4,50.5L88.4,50.5z M92.3,44.8c0-1.8-0.2-1.8-0.9-1.9l-0.3,0
	c-0.1-0.1-0.1-0.4,0-0.5c0.6,0,1.4,0,2.2,0h3.2c1.1,0,2,0,2.2,0c0.1,0.3,0.2,1.6,0.3,2.3c-0.1,0.1-0.4,0.2-0.5,0.1
	c-0.3-1-0.5-1.4-1-1.5C97,43.1,96.6,43,96.1,43H95c-0.7,0-0.7,0-0.7,1v2.8c0,0.4,0,0.4,0.4,0.4h0.8c1.4,0,1.7,0,1.8-0.7l0.1-0.6
	c0.1-0.1,0.4-0.1,0.5,0c0,0.4,0,1,0,1.7c0,0.6,0,1.2,0,1.8c-0.1,0.1-0.4,0.1-0.5,0l-0.1-0.7c-0.1-0.7-0.4-0.7-1.8-0.7h-0.8
	c-0.4,0-0.4,0-0.4,0.4v2.1c0,0.8,0,1.4,0.3,1.7c0.2,0.2,0.5,0.4,1.9,0.4c2.1,0,2.5-0.4,3.1-1.8c0.2-0.1,0.4-0.1,0.5,0.1
	c-0.1,0.7-0.5,2-0.7,2.4c-0.7,0-2.2,0-4.1,0h-1.9c-0.7,0-1.8,0-2.5,0c-0.1-0.1-0.2-0.4,0-0.5l0.6-0.1c0.8-0.1,0.9-0.1,0.9-1.9
	L92.3,44.8L92.3,44.8z M19,57.5c0-0.6,0-0.6-0.3-0.7h-0.1c0,0,0-0.2,0-0.2h2.7c0,0.1,0,0.6,0.1,0.8c0,0-0.2,0.1-0.2,0
	c-0.1-0.4-0.2-0.5-0.4-0.6c-0.1,0-0.3,0-0.5,0h-0.4c-0.2,0-0.2,0-0.2,0.4v1c0,0.2,0,0.2,0.2,0.2h0.3c0.5,0,0.6,0,0.7-0.3l0-0.2
	c0,0,0.2,0,0.2,0v1.2c0,0-0.2,0-0.2,0l0-0.2c0-0.2-0.2-0.3-0.7-0.3h-0.3c-0.1,0-0.2,0-0.2,0.2v0.8c0,0.3,0,0.5,0.1,0.6
	c0.1,0.1,0.2,0.1,0.7,0.1c0.8,0,0.9-0.2,1.1-0.6c0,0,0.2,0,0.2,0c0,0.2-0.2,0.7-0.2,0.9h-3.1c0,0,0-0.1,0-0.2l0.2,0
	c0.3,0,0.3,0,0.3-0.7L19,57.5L19,57.5z M27.9,59.6v1c0,0.1-0.1,0.1-0.2,0.1c-0.1-0.1-0.3-0.3-0.7-0.8l-1.4-1.6
	c-0.4-0.4-0.6-0.7-0.7-0.8v1.6c0,0.4,0,1,0.1,1.2c0,0.1,0.2,0.1,0.3,0.2h0.1c0,0,0,0.2,0,0.2h-1.3c0,0-0.1-0.1,0-0.2l0.1,0
	c0.1,0,0.2,0,0.3-0.1c0.1-0.2,0.1-0.7,0.1-1.2v-1.4c0-0.5,0-0.6-0.2-0.8c-0.1,0-0.2-0.1-0.3-0.1h-0.1c0,0,0-0.2,0-0.2
	c0.2,0,0.6,0,0.7,0h0.4c0.1,0.2,0.8,1,1,1.2l0.6,0.6c0.2,0.3,0.8,0.9,0.9,1v-1.3c0-0.4,0-1-0.1-1.2c0-0.1-0.2-0.1-0.3-0.2h-0.1
	c0,0,0-0.2,0-0.2h1.3c0,0,0,0.1,0,0.2l-0.1,0c-0.1,0-0.2,0-0.2,0.1C28,57.2,28,57.7,28,58.2L27.9,59.6L27.9,59.6z M35.2,57.6
	c0-0.6,0-0.6-0.2-0.7h-0.2c0,0,0-0.2,0-0.2c0.4,0,0.8,0,1.3,0c0.6,0,1,0.1,1.2,0.2c0.3,0.2,0.5,0.5,0.5,0.9c0,0.9-0.9,1.2-1.4,1.2
	h-0.2c0,0,0-0.1,0-0.2c0.6-0.1,0.8-0.5,0.8-1s-0.3-0.9-0.9-0.9c-0.3,0-0.3,0-0.3,0.2v2.6c0,0.6,0,0.6,0.3,0.7l0.2,0c0,0,0,0.2,0,0.2
	h-1.6c0,0,0-0.1,0-0.2h0.1c0.3,0,0.3-0.1,0.3-0.7L35.2,57.6L35.2,57.6z M40.9,57.6c0-0.6,0-0.6-0.3-0.7h-0.2c0,0,0-0.1,0-0.2
	c0.4,0,0.9,0,1.4,0c0.5,0,0.9,0.1,1.2,0.2c0.3,0.2,0.5,0.4,0.5,0.9c0,0.6-0.4,0.8-0.7,1c0,0,0,0.1,0,0.1c0.5,0.8,0.8,1.3,1.1,1.6
	c0.2,0.2,0.4,0.2,0.4,0.2c0,0,0,0.1,0,0.1c-0.1,0-0.2,0-0.4,0c-0.6,0-0.9-0.2-1.2-0.8c-0.2-0.2-0.3-0.6-0.5-0.8
	C42.1,59,42,59,41.8,59s-0.2,0-0.2,0.1v0.8c0,0.6,0,0.6,0.3,0.7h0.1c0,0,0,0.2,0,0.2h-1.6c0,0-0.1-0.1,0-0.2h0.1
	c0.3,0,0.3,0,0.3-0.7C40.9,59.8,40.9,57.6,40.9,57.6z M41.6,58.4c0,0.2,0,0.2,0.3,0.2c0.6,0,0.9-0.3,0.9-0.9c0-0.5-0.3-0.9-0.8-0.9
	c-0.3,0-0.3,0-0.3,0.3C41.6,57.2,41.6,58.4,41.6,58.4z M50.6,58.6c0,1.2-0.9,2.1-2.1,2.1c-1.4,0-2.2-1-2.2-2c0-1.2,0.9-2.1,2.2-2.1
	C49.9,56.6,50.6,57.6,50.6,58.6 M47.2,58.5c0,0.8,0.4,2,1.4,2c0.7,0,1.2-0.5,1.2-1.7c0-0.9-0.4-2-1.4-2
	C47.8,56.8,47.2,57.2,47.2,58.5 M55.6,59.2c-0.2,0.6-0.5,1.2-0.6,1.6c0,0-0.1,0-0.1,0c0,0-0.1,0-0.1,0c-0.1-0.2-0.2-0.5-0.3-0.8
	l-1-2.5c-0.2-0.4-0.2-0.5-0.5-0.5l-0.2,0c0,0,0-0.2,0-0.2h1.5c0,0,0,0.1,0,0.2l-0.2,0c-0.1,0-0.2,0.1-0.2,0.1s0,0.2,0.3,0.8l0.4,1.1
	c0.1,0.3,0.3,0.6,0.3,0.8c0.3-0.8,0.7-1.6,1-2.4C56,57,56,57,55.8,56.9l-0.2,0c0,0,0-0.2,0-0.2h1.2c0,0,0,0.1,0,0.2l-0.2,0
	c-0.1,0-0.3,0.1-0.4,0.2c-0.2,0.3-0.4,0.7-0.6,1.3L55.6,59.2L55.6,59.2z M59.7,57.5c0-0.6,0-0.6-0.3-0.7h-0.1c0,0,0-0.2,0-0.2H62
	c0,0.1,0,0.6,0.1,0.8c0,0-0.2,0.1-0.2,0c-0.1-0.4-0.2-0.5-0.4-0.6c-0.1,0-0.3,0-0.5,0h-0.4c-0.2,0-0.2,0-0.2,0.4v1
	c0,0.2,0,0.2,0.2,0.2h0.3c0.5,0,0.6,0,0.7-0.3l0-0.2c0,0,0.2,0,0.2,0v1.2c0,0-0.2,0-0.2,0l0-0.2c0-0.2-0.2-0.3-0.7-0.3h-0.3
	c-0.1,0-0.2,0-0.2,0.2v0.8c0,0.3,0,0.5,0.1,0.6c0.1,0.1,0.2,0.1,0.7,0.1c0.8,0,0.9-0.2,1.1-0.6c0,0,0.2,0,0.2,0
	c0,0.2-0.2,0.7-0.2,0.9h-3.1c0,0,0-0.1,0-0.2l0.2,0c0.3,0,0.3,0,0.3-0.7L59.7,57.5L59.7,57.5z M68.6,59.6v1c0,0.1-0.1,0.1-0.2,0.1
	c-0.1-0.1-0.3-0.3-0.7-0.8l-1.4-1.6c-0.4-0.4-0.6-0.7-0.7-0.8v1.6c0,0.4,0,1,0.1,1.2c0,0.1,0.2,0.1,0.3,0.2h0.1c0,0,0,0.2,0,0.2
	h-1.3c0,0-0.1-0.1,0-0.2l0.1,0c0.1,0,0.2,0,0.3-0.1c0.1-0.2,0.1-0.7,0.1-1.2v-1.4c0-0.5,0-0.6-0.2-0.8c-0.1,0-0.2-0.1-0.3-0.1h-0.1
	c0,0,0-0.2,0-0.2c0.2,0,0.6,0,0.7,0h0.4c0.1,0.2,0.8,1,1,1.2l0.6,0.6c0.2,0.3,0.8,0.9,0.9,1v-1.3c0-0.4,0-1-0.1-1.2
	c0-0.1-0.2-0.1-0.3-0.2h-0.1c0,0,0-0.2,0-0.2h1.3c0,0,0,0.1,0,0.2l-0.1,0c-0.1,0-0.2,0-0.2,0.1c-0.1,0.2-0.1,0.7-0.1,1.2L68.6,59.6
	L68.6,59.6z M75.5,57.7c0,0-0.2,0-0.2,0c-0.1-0.4-0.4-0.9-1.2-0.9c-0.8,0-1.5,0.6-1.5,1.8c0,1.3,0.8,1.9,1.6,1.9s1.1-0.5,1.2-0.9
	c0,0,0.2,0,0.2,0c0,0.4-0.2,0.8-0.3,0.9c-0.1,0-0.2,0-0.2,0c-0.1,0-0.6,0.2-0.9,0.2c-0.6,0-1.1-0.1-1.6-0.4
	c-0.5-0.3-0.8-0.9-0.8-1.6c0-0.7,0.3-1.2,0.8-1.6c0.4-0.3,1-0.5,1.7-0.5c0.4,0,0.8,0.1,1,0.1c0.1,0,0.1,0,0.2,0
	C75.4,56.9,75.4,57.2,75.5,57.7 M78.5,57.5c0-0.6,0-0.6-0.3-0.7h-0.1c0,0,0-0.2,0-0.2h2.7c0,0.1,0,0.6,0.1,0.8c0,0-0.2,0.1-0.2,0
	c-0.1-0.4-0.2-0.5-0.4-0.6c-0.1,0-0.3,0-0.5,0h-0.4c-0.2,0-0.2,0-0.2,0.4v1c0,0.2,0,0.2,0.2,0.2h0.3c0.5,0,0.6,0,0.7-0.3l0-0.2
	c0,0,0.2,0,0.2,0v1.2c0,0-0.2,0-0.2,0l0-0.2c0-0.2-0.2-0.3-0.7-0.3h-0.3c-0.1,0-0.2,0-0.2,0.2v0.8c0,0.3,0,0.5,0.1,0.6
	c0.1,0.1,0.2,0.1,0.7,0.1c0.8,0,0.9-0.2,1.1-0.6c0,0,0.2,0,0.2,0c0,0.2-0.2,0.7-0.2,0.9H78c0,0,0-0.1,0-0.2l0.2,0
	c0.3,0,0.3,0,0.3-0.7L78.5,57.5L78.5,57.5z"/>
</svg>
